<svg id="Calque_1" data-name="Calque 1" xmlns="http://www.w3.org/2000/svg" xmlns:xlink="http://www.w3.org/1999/xlink" viewBox="0 0 42.68 42.68"><defs><style>.cls-1{fill:url(#Degradado_sin_nombre_14);}.cls-2{fill:#dedad4;}</style><radialGradient id="Degradado_sin_nombre_14" cx="21.34" cy="21.34" r="21.34" gradientUnits="userSpaceOnUse"><stop offset="0.08" stop-color="#3d3d3b"/><stop offset="0.35" stop-color="#363634"/><stop offset="0.75" stop-color="#222220"/><stop offset="0.82" stop-color="#1e1e1c"/></radialGradient></defs><title>instagram</title><rect class="cls-1" width="42.68" height="42.68"/><circle class="cls-2" cx="27.74" cy="15.11" r="1.4"/><path class="cls-2" d="M21.51,15.35a6,6,0,1,0,6,6A6,6,0,0,0,21.51,15.35Zm0,9.88a3.89,3.89,0,1,1,3.89-3.89A3.89,3.89,0,0,1,21.51,25.23Z"/><path class="cls-2" d="M33.11,16.53a8.57,8.57,0,0,0-.55-2.83,5.47,5.47,0,0,0-1.34-2.06,5.74,5.74,0,0,0-2.07-1.35,8.6,8.6,0,0,0-2.83-.54c-1.24-.06-1.64-.07-4.81-.07s-3.56,0-4.8.07a8.55,8.55,0,0,0-2.83.54,5.74,5.74,0,0,0-2.07,1.35,5.62,5.62,0,0,0-1.35,2.06,8.87,8.87,0,0,0-.54,2.83c-.05,1.25-.07,1.64-.07,4.81s0,3.56.07,4.81A8.87,8.87,0,0,0,10.46,29,5.62,5.62,0,0,0,11.81,31a5.74,5.74,0,0,0,2.07,1.35,8.3,8.3,0,0,0,2.83.54c1.24.06,1.64.07,4.8.07s3.57,0,4.81-.07a8.35,8.35,0,0,0,2.83-.54A5.74,5.74,0,0,0,31.22,31,5.47,5.47,0,0,0,32.56,29a8.57,8.57,0,0,0,.55-2.83c0-1.25.07-1.64.07-4.81S33.16,17.78,33.11,16.53ZM31,26.05a7,7,0,0,1-.4,2.17,3.76,3.76,0,0,1-.88,1.34,3.53,3.53,0,0,1-1.34.87,6.4,6.4,0,0,1-2.16.4c-1.23.06-1.6.07-4.72.07s-3.48,0-4.71-.07a6.4,6.4,0,0,1-2.16-.4,3.46,3.46,0,0,1-1.34-.87,3.64,3.64,0,0,1-.88-1.34,6.42,6.42,0,0,1-.4-2.17c0-1.23-.07-1.6-.07-4.71s0-3.48.07-4.71a6.42,6.42,0,0,1,.4-2.17,3.64,3.64,0,0,1,.88-1.34,3.46,3.46,0,0,1,1.34-.87,6.4,6.4,0,0,1,2.16-.4c1.23-.06,1.6-.07,4.71-.07s3.49,0,4.72.07a6.4,6.4,0,0,1,2.16.4,3.53,3.53,0,0,1,1.34.87,3.76,3.76,0,0,1,.88,1.34,7,7,0,0,1,.4,2.17c0,1.23.06,1.6.06,4.71S31.06,24.82,31,26.05Z"/></svg>