<svg id="Calque_1" data-name="Calque 1" xmlns="http://www.w3.org/2000/svg" xmlns:xlink="http://www.w3.org/1999/xlink" viewBox="0 0 42.68 42.68"><defs><style>.cls-1{fill:url(#Degradado_sin_nombre_14);}.cls-2{fill:#dedad4;}</style><radialGradient id="Degradado_sin_nombre_14" cx="21.34" cy="21.34" r="21.34" gradientUnits="userSpaceOnUse"><stop offset="0.08" stop-color="#3d3d3b"/><stop offset="0.35" stop-color="#363634"/><stop offset="0.75" stop-color="#222220"/><stop offset="0.82" stop-color="#1e1e1c"/></radialGradient></defs><title>paypal</title><rect class="cls-1" width="42.68" height="42.68"/><path class="cls-2" d="M12.5,31.22a.67.67,0,0,1-.66-.77L15.07,10A1.11,1.11,0,0,1,16.16,9h7.76c2.67,0,4.76.57,5.92,1.89a5,5,0,0,1,1.05,4.45s-.05.3-.08.46c-1,5.25-4.52,7.07-9,7.07H19.54a1.1,1.1,0,0,0-1.09.93l0-.24-1.21,7.63ZM32.8,20.88c-.89,4.59-4,6.18-7.87,6.18h-.6a1,1,0,0,0-1,.82l-.05.26L22.56,33l0,.21a1,1,0,0,1-1,.82H18.25l1.53-9.71h2c5.62,0,9.17-2.74,10.28-7.91A5.37,5.37,0,0,1,32.8,20.88Z"/></svg>