<svg id="Calque_1" data-name="Calque 1" xmlns="http://www.w3.org/2000/svg" xmlns:xlink="http://www.w3.org/1999/xlink" viewBox="0 0 42.68 42.68"><defs><style>.cls-1{fill:url(#Degradado_sin_nombre_14);}.cls-2{fill:#dedad4;}</style><radialGradient id="Degradado_sin_nombre_14" cx="21.34" cy="21.34" r="21.34" gradientUnits="userSpaceOnUse"><stop offset="0.08" stop-color="#3d3d3b"/><stop offset="0.35" stop-color="#363634"/><stop offset="0.75" stop-color="#222220"/><stop offset="0.82" stop-color="#1e1e1c"/></radialGradient></defs><title>pinterest</title><rect class="cls-1" width="42.68" height="42.68"/><path class="cls-2" d="M23.62,27.71A4.2,4.2,0,0,1,20,25.87s-.86,3.4-1,4.05a15.72,15.72,0,0,1-2.66,4.82.2.2,0,0,1-.35-.08,16.6,16.6,0,0,1,0-5.6c.29-1.2,1.9-8,1.9-8a5.66,5.66,0,0,1-.47-2.33c0-2.18,1.26-3.81,2.84-3.81a2,2,0,0,1,2,2.21c0,1.35-.86,3.36-1.31,5.23a2.29,2.29,0,0,0,2.33,2.84c2.79,0,4.67-3.59,4.67-7.83,0-3.23-2.17-5.65-6.13-5.65a7,7,0,0,0-7.25,7,4.25,4.25,0,0,0,1,2.89.71.71,0,0,1,.21.82c-.07.28-.23.93-.3,1.19a.5.5,0,0,1-.73.36c-2.06-.84-3-3.09-3-5.62,0-4.19,3.53-9.2,10.53-9.2,5.62,0,9.32,4.07,9.32,8.44C31.57,23.39,28.36,27.71,23.62,27.71Z"/></svg>