<?xml version="1.0" encoding="iso-8859-1"?>
<!-- Generator: Adobe Illustrator 19.0.0, SVG Export Plug-In . SVG Version: 6.00 Build 0)  -->
<svg version="1.1" id="Capa_1" xmlns="http://www.w3.org/2000/svg" xmlns:xlink="http://www.w3.org/1999/xlink" x="0px" y="0px"
	 viewBox="0 0 512 512" style="enable-background:new 0 0 512 512;" xml:space="preserve">
<path style="fill:#303C42;" d="M512,138.667c0-29.406-23.917-53.333-53.333-53.333h-12.143C397.931,31.147,328.861,0,256,0
	C183.195,0,114.137,31.143,65.491,85.333H53.333C23.917,85.333,0,109.26,0,138.667V160c0,13.497,2.408,26.415,6.621,38.495
	C2.314,217.298,0,236.616,0,256c0,141.156,114.833,256,256,256s256-114.844,256-256c0-19.413-2.301-38.729-6.617-57.516
	C509.595,186.408,512,173.493,512,160V138.667z"/>
<path style="fill:#FED600;" d="M490.667,256c0,129.396-105.271,234.667-234.667,234.667S21.333,385.396,21.333,256
	c0-8.919,0.565-17.819,1.566-26.659c21.382,29.036,55.697,47.992,94.434,47.992c63.615,0,115.465-50.936,117.172-114.155
	c2.495-3.922,9.921-13.845,21.495-13.845c11.609,0,19.046,9.986,21.495,13.848c1.708,63.22,53.559,114.152,117.172,114.152
	c38.741,0,73.061-18.96,94.441-48.003C490.108,238.167,490.667,247.072,490.667,256z"/>
<path style="opacity:0.1;fill:#010101;enable-background:new    ;" d="M489.108,229.331c-5.909,8.026-12.887,15.182-20.592,21.482
	c-8.357,121.861-109.904,218.521-233.849,218.521c-59.277,0-113.332-22.267-154.682-58.651
	c43.038,48.911,105.897,79.984,176.016,79.984c129.396,0,234.667-105.271,234.667-234.667
	C490.667,247.072,490.108,238.167,489.108,229.331z"/>
<path style="fill:#303C42;" d="M397.188,299.125c-5.604-1.396-11.479,2.115-12.875,7.833
	c-14.146,57.927-66.896,98.375-128.292,98.375c-61.458,0-114.229-40.51-128.313-98.521c-1.396-5.719-7.125-9.229-12.896-7.844
	c-5.729,1.385-9.229,7.156-7.854,12.885c16.438,67.594,77.729,114.813,149.063,114.813c71.271,0,132.542-47.146,149-114.646
	C406.417,306.292,402.917,300.521,397.188,299.125z"/>
<path id="SVGCleanerId_0" style="fill:#5C6771;" d="M490.667,138.667V160c0,52.938-43.063,96-96,96s-96-43.063-96-96v-21.333
	c0-17.646,14.354-32,32-32h128C476.313,106.667,490.667,121.021,490.667,138.667z"/>
<g>
	<path id="SVGCleanerId_0_1_" style="fill:#5C6771;" d="M490.667,138.667V160c0,52.938-43.063,96-96,96s-96-43.063-96-96v-21.333
		c0-17.646,14.354-32,32-32h128C476.313,106.667,490.667,121.021,490.667,138.667z"/>
</g>
<g>
	<path style="fill:#FED600;" d="M277.772,134.318C271.849,130.72,264.715,128,256,128s-15.849,2.72-21.772,6.318
		c-0.854-10.346-4.566-19.814-10.497-27.651h64.539C282.339,114.504,278.626,123.971,277.772,134.318z"/>
	<path style="fill:#FED600;" d="M256,21.333c60.176,0,117.596,23.1,160.961,64H95.049C138.456,44.426,195.87,21.333,256,21.333z"/>
</g>
<path style="fill:#5C6771;" d="M21.333,138.667c0-17.646,14.354-32,32-32h128c17.646,0,32,14.354,32,32V160
	c0,52.938-43.063,96-96,96s-96-43.063-96-96V138.667z"/>
<g>
	<path style="opacity:0.1;fill:#010101;enable-background:new    ;" d="M193.997,109.305c1.684,3.889,2.638,8.163,2.638,12.664
		v21.333c0,52.938-43.063,96-96,96c-22.21,0-42.422-7.889-58.704-20.598C59.514,241.232,86.605,256,117.333,256
		c52.938,0,96-43.063,96-96v-21.333C213.333,125.522,205.355,114.224,193.997,109.305z"/>
	<path style="opacity:0.1;fill:#010101;enable-background:new    ;" d="M471.331,109.305c1.684,3.889,2.638,8.163,2.638,12.664
		v21.333c0,52.938-43.063,96-96,96c-22.21,0-42.422-7.889-58.704-20.598C336.848,241.232,363.939,256,394.667,256
		c52.938,0,96-43.063,96-96v-21.333C490.667,125.522,482.689,114.224,471.331,109.305z"/>
</g>
<linearGradient id="SVGID_1_" gradientUnits="userSpaceOnUse" x1="-45.5843" y1="640.5716" x2="-37.2993" y2="636.7086" gradientTransform="matrix(21.3333 0 0 -21.3333 996.3334 13791.667)">
	<stop  offset="0" style="stop-color:#FFFFFF;stop-opacity:0.2"/>
	<stop  offset="1" style="stop-color:#FFFFFF;stop-opacity:0"/>
</linearGradient>
<path style="fill:url(#SVGID_1_);" d="M21.333,138.667c0-17.646,14.354-32,32-32h128c17.646,0,32,14.354,32,32V160
	c0,52.938-43.063,96-96,96s-96-43.063-96-96V138.667z"/>
<linearGradient id="SVGID_2_" gradientUnits="userSpaceOnUse" x1="-32.5842" y1="640.5718" x2="-24.2994" y2="636.7085" gradientTransform="matrix(21.3333 0 0 -21.3333 996.3334 13791.667)">
	<stop  offset="0" style="stop-color:#FFFFFF;stop-opacity:0.2"/>
	<stop  offset="1" style="stop-color:#FFFFFF;stop-opacity:0"/>
</linearGradient>
<path style="fill:url(#SVGID_2_);" d="M490.667,138.667V160c0,52.938-43.063,96-96,96s-96-43.063-96-96v-21.333
	c0-17.646,14.354-32,32-32h128C476.313,106.667,490.667,121.021,490.667,138.667z"/>
<linearGradient id="SVGID_3_" gradientUnits="userSpaceOnUse" x1="-46.88" y1="640.1589" x2="-23.8285" y2="629.4122" gradientTransform="matrix(21.3333 0 0 -21.3333 996.3334 13791.667)">
	<stop  offset="0" style="stop-color:#FFFFFF;stop-opacity:0.2"/>
	<stop  offset="1" style="stop-color:#FFFFFF;stop-opacity:0"/>
</linearGradient>
<path style="fill:url(#SVGID_3_);" d="M512,138.667c0-29.406-23.917-53.333-53.333-53.333h-12.143C397.931,31.147,328.861,0,256,0
	C183.195,0,114.137,31.143,65.491,85.333H53.333C23.917,85.333,0,109.26,0,138.667V160c0,13.497,2.408,26.415,6.621,38.495
	C2.314,217.298,0,236.616,0,256c0,141.156,114.833,256,256,256s256-114.844,256-256c0-19.413-2.301-38.729-6.617-57.516
	C509.595,186.408,512,173.493,512,160V138.667z"/>
<g>
</g>
<g>
</g>
<g>
</g>
<g>
</g>
<g>
</g>
<g>
</g>
<g>
</g>
<g>
</g>
<g>
</g>
<g>
</g>
<g>
</g>
<g>
</g>
<g>
</g>
<g>
</g>
<g>
</g>
</svg>
