<?xml version="1.0" encoding="iso-8859-1"?>
<!-- Generator: Adobe Illustrator 19.0.0, SVG Export Plug-In . SVG Version: 6.00 Build 0)  -->
<svg version="1.1" id="Capa_1" xmlns="http://www.w3.org/2000/svg" xmlns:xlink="http://www.w3.org/1999/xlink" x="0px" y="0px"
	 viewBox="0 0 512 512" style="enable-background:new 0 0 512 512;" xml:space="preserve">
<path style="fill:#303C42;" d="M256,0C114.844,0,0,114.844,0,256s114.844,256,256,256s256-114.844,256-256S397.156,0,256,0z"/>
<path style="fill:#FED600;" d="M256,490.667C126.604,490.667,21.333,385.396,21.333,256S126.604,21.333,256,21.333
	S490.667,126.604,490.667,256S385.396,490.667,256,490.667z"/>
<path style="opacity:0.1;fill:#010101;enable-background:new    ;" d="M407.888,77.445C442.798,118.421,464,171.411,464,229.333
	C464,358.729,358.729,464,229.333,464c-57.922,0-110.913-21.202-151.888-56.112c43.077,50.563,107.081,82.779,178.555,82.779
	c129.396,0,234.667-105.271,234.667-234.667C490.667,184.526,458.451,120.522,407.888,77.445z"/>
<g>
	<circle style="fill:#303C42;" cx="170.667" cy="192" r="21.333"/>
	<circle style="fill:#303C42;" cx="341.333" cy="192" r="21.333"/>
	<path style="fill:#303C42;" d="M407.417,339l-11.299-11.299c1.852-5.184,3.878-10.277,5.174-15.742
		c1.365-5.74-2.177-11.49-7.906-12.844c-5.781-1.406-11.49,2.177-12.844,7.906c-13.75,57.885-64.958,98.313-124.542,98.313
		c-59.656,0-110.885-40.49-124.573-98.448c-1.365-5.75-7.146-9.25-12.833-7.938c-5.74,1.354-9.292,7.104-7.938,12.833
		c15.979,67.646,75.75,114.885,145.344,114.885c26.273,0,51.126-6.777,72.776-18.807l4.891,4.891
		c9.781,9.781,23.115,15.281,36.896,15.281c0.781,0,1.573-0.021,2.354-0.052c14.604-0.667,28.344-7.49,37.698-18.719
		C427.99,388.406,426.615,358.198,407.417,339z"/>
</g>
<path style="fill:#E53A35;" d="M394.219,395.604c-5.604,6.74-13.51,10.667-22.271,11.063c-8.688,0.219-17-2.802-23.198-9
	l-1.839-1.839c16.41-12.574,29.841-28.727,39.889-47.277l5.533,5.533C403.677,365.427,404.49,383.281,394.219,395.604z"/>
<path style="opacity:0.1;fill:#010101;enable-background:new    ;" d="M398.139,388.387c-5.604,6.74-13.51,10.667-22.271,11.063
	c-8.576,0.216-16.766-2.754-22.938-8.79c-2.004,1.727-3.917,3.557-6.02,5.169l1.839,1.839c6.198,6.198,14.51,9.219,23.198,9
	c8.76-0.396,16.667-4.323,22.271-11.063c2.628-3.154,4.484-6.676,5.671-10.352C399.225,386.271,398.936,387.43,398.139,388.387z"/>
<linearGradient id="SVGID_1_" gradientUnits="userSpaceOnUse" x1="-45.5784" y1="639.555" x2="-23.8278" y2="629.4138" gradientTransform="matrix(21.3333 0 0 -21.3333 996.3334 13791.667)">
	<stop  offset="0" style="stop-color:#FFFFFF;stop-opacity:0.2"/>
	<stop  offset="1" style="stop-color:#FFFFFF;stop-opacity:0"/>
</linearGradient>
<path style="fill:url(#SVGID_1_);" d="M256,0C114.844,0,0,114.844,0,256s114.844,256,256,256s256-114.844,256-256S397.156,0,256,0z"
	/>
<g>
</g>
<g>
</g>
<g>
</g>
<g>
</g>
<g>
</g>
<g>
</g>
<g>
</g>
<g>
</g>
<g>
</g>
<g>
</g>
<g>
</g>
<g>
</g>
<g>
</g>
<g>
</g>
<g>
</g>
</svg>
