<?xml version="1.0" encoding="iso-8859-1"?>
<!-- Generator: Adobe Illustrator 19.0.0, SVG Export Plug-In . SVG Version: 6.00 Build 0)  -->
<svg version="1.1" id="Capa_1" xmlns="http://www.w3.org/2000/svg" xmlns:xlink="http://www.w3.org/1999/xlink" x="0px" y="0px"
	 viewBox="0 0 512 512" style="enable-background:new 0 0 512 512;" xml:space="preserve">
<path style="fill:#303C42;" d="M256,0C114.844,0,0,114.844,0,256s114.844,256,256,256s256-114.844,256-256S397.156,0,256,0z"/>
<path style="fill:#FED600;" d="M256,490.667C126.604,490.667,21.333,385.396,21.333,256S126.604,21.333,256,21.333
	S490.667,126.604,490.667,256S385.396,490.667,256,490.667z"/>
<path style="opacity:0.1;fill:#010101;enable-background:new    ;" d="M406.768,76.427c34.318,40.814,55.081,93.382,55.081,150.754
	c0,129.396-105.271,234.667-234.667,234.667c-57.379,0-109.953-20.77-150.768-55.094c43.081,51.237,107.563,83.913,179.586,83.913
	c129.396,0,234.667-105.271,234.667-234.667C490.667,183.983,457.996,119.508,406.768,76.427z"/>
<path style="fill:#303C42;" d="M394.667,277.333H117.333c-5.896,0-10.667,4.771-10.667,10.667c0,89.719,65.594,160,149.333,160
	s149.333-70.281,149.333-160C405.333,282.104,400.563,277.333,394.667,277.333z"/>
<path style="fill:#E53A35;" d="M198.217,412.173c15.76-8.682,35.499-9.268,52.418,0.587c3.313,1.938,7.417,1.938,10.729,0
	c16.938-9.852,36.667-9.27,52.417-0.586c-17.276,9.264-36.854,14.492-57.781,14.492
	C235.072,426.667,215.493,421.438,198.217,412.173z"/>
<path style="fill:#B72025;" d="M333.089,399.327c-21.728-16.427-51.646-20.221-77.089-7.868
	c-25.44-12.352-55.345-8.566-77.091,7.867c-28.656-23.117-47.759-59.029-50.555-100.659h255.292
	C380.85,340.298,361.746,376.21,333.089,399.327z"/>
<path style="opacity:0.1;fill:#010101;enable-background:new    ;" d="M148.104,340.109c-3.19-13.114,7.45-25.62,20.947-25.62
	h212.686c0.891-5.172,1.548-10.444,1.909-15.823H128.354c2.732,40.688,21.111,75.828,48.693,98.983
	C163.502,381.584,153.429,362.004,148.104,340.109z"/>
<g>
	<path style="fill:#303C42;" d="M218.083,211.542c1.823,1.208,3.875,1.792,5.906,1.792c3.448,0,6.833-1.667,8.885-4.75
		c3.271-4.906,1.948-11.521-2.958-14.792l-64-42.667c-3.583-2.396-8.25-2.396-11.833,0l-64,42.667
		c-4.906,3.271-6.229,9.885-2.958,14.792c3.26,4.896,9.854,6.208,14.792,2.958L160,172.823L218.083,211.542z"/>
	<path style="fill:#303C42;" d="M421.917,193.792l-64-42.667c-3.583-2.396-8.25-2.396-11.833,0l-64,42.667
		c-4.906,3.271-6.229,9.885-2.958,14.792c3.24,4.896,9.844,6.208,14.792,2.958L352,172.823l58.083,38.719
		c1.823,1.208,3.875,1.792,5.906,1.792c3.448,0,6.833-1.667,8.885-4.75C428.146,203.677,426.823,197.063,421.917,193.792z"/>
</g>
<linearGradient id="SVGID_1_" gradientUnits="userSpaceOnUse" x1="-45.5784" y1="639.555" x2="-23.8278" y2="629.4138" gradientTransform="matrix(21.3333 0 0 -21.3333 996.3334 13791.667)">
	<stop  offset="0" style="stop-color:#FFFFFF;stop-opacity:0.2"/>
	<stop  offset="1" style="stop-color:#FFFFFF;stop-opacity:0"/>
</linearGradient>
<path style="fill:url(#SVGID_1_);" d="M256,0C114.844,0,0,114.844,0,256s114.844,256,256,256s256-114.844,256-256S397.156,0,256,0z"
	/>
<g>
</g>
<g>
</g>
<g>
</g>
<g>
</g>
<g>
</g>
<g>
</g>
<g>
</g>
<g>
</g>
<g>
</g>
<g>
</g>
<g>
</g>
<g>
</g>
<g>
</g>
<g>
</g>
<g>
</g>
</svg>
