<?xml version="1.0" encoding="iso-8859-1"?>
<!-- Generator: Adobe Illustrator 19.0.0, SVG Export Plug-In . SVG Version: 6.00 Build 0)  -->
<svg version="1.1" id="Capa_1" xmlns="http://www.w3.org/2000/svg" xmlns:xlink="http://www.w3.org/1999/xlink" x="0px" y="0px"
	 viewBox="0 0 512 512" style="enable-background:new 0 0 512 512;" xml:space="preserve">
<path style="fill:#303C42;" d="M256,0C114.844,0,0,114.833,0,256s114.844,256,256,256s256-114.833,256-256S397.156,0,256,0z"/>
<path style="fill:#BDDDF4;" d="M138.438,64.229c3.26,0.083,12.552,4.521,22.906,10.667c-10.333,6.146-19.625,10.563-22.896,10.667
	c-5.885,0-10.667-4.792-10.667-10.667S132.563,64.229,138.438,64.229z"/>
<path style="fill:#FED600;" d="M256,490.667C126.604,490.667,21.333,385.396,21.333,256c0-72.625,33.177-137.635,85.154-180.714
	c0.215,17.462,14.449,31.609,31.961,31.609c13.635,0,38.615-16.25,48.729-23.229c2.885-1.979,4.604-5.271,4.604-8.771
	s-1.719-6.792-4.604-8.771c-7.342-5.066-22.492-14.956-35.475-20.03C183.169,30.393,218.508,21.333,256,21.333
	c129.396,0,234.667,105.271,234.667,234.667c0,37.487-9.059,72.822-24.757,104.286c-5.074-12.983-14.953-28.121-20.025-35.453
	c-3.979-5.75-13.563-5.75-17.542,0c-6.99,10.104-23.229,35.083-23.229,48.729c0,17.507,14.137,31.733,31.591,31.958
	C393.628,457.492,328.621,490.667,256,490.667z"/>
<path style="fill:#BDDDF4;" d="M437.115,384.229c-5.885,0-10.667-4.792-10.667-10.646c0.083-3.271,4.521-12.563,10.667-22.917
	c6.146,10.333,10.583,19.646,10.667,22.917C447.771,379.458,442.99,384.229,437.115,384.229z"/>
<path style="fill:#303C42;" d="M135.323,120.229c-4.167-4.167-10.917-4.167-15.083,0C83.969,156.5,64,204.708,64,256
	s19.969,99.5,56.24,135.771c37.427,37.438,86.594,56.146,135.76,56.146s98.333-18.708,135.76-56.146
	c4.167-4.167,4.167-10.917,0-15.083L135.323,120.229z"/>
<path style="fill:#B72025;" d="M256,426.667c-45.583,0-88.448-17.75-120.677-49.979c-32.24-32.229-49.99-75.104-49.99-120.688
	c0-42.021,15.073-81.708,42.677-112.917L368.906,384C337.708,411.604,298.01,426.667,256,426.667z"/>
<path style="opacity:0.1;fill:#010101;enable-background:new    ;" d="M103.547,274.214c0-42.021,15.072-81.707,42.676-112.915
	l-18.212-18.215C100.406,174.292,85.333,213.979,85.333,256c0,45.583,17.75,88.458,49.99,120.688
	c3.057,3.057,6.297,5.858,9.539,8.652C118.208,354.406,103.547,315.462,103.547,274.214z"/>
<g>
	<path style="fill:#303C42;" d="M219.229,126.875l85.333,42.667c1.521,0.75,3.146,1.125,4.771,1.125c2.76,0,5.49-1.083,7.542-3.125
		c3.25-3.25,4.052-8.208,2-12.313l-42.667-85.333c-2.635-5.25-9.052-7.438-14.313-4.771c-5.271,2.646-7.406,9.042-4.771,14.313
		l28.354,56.708l-56.708-28.354c-5.281-2.667-11.667-0.479-14.313,4.771C211.823,117.833,213.958,124.229,219.229,126.875z"/>
	<path style="fill:#303C42;" d="M404.208,283.229l-28.354-56.708l56.708,28.354c5.271,2.646,11.667,0.479,14.313-4.771
		c2.635-5.271,0.5-11.667-4.771-14.313l-85.333-42.667c-4.115-2.042-9.052-1.25-12.313,2c-3.25,3.25-4.052,8.208-2,12.313
		l42.667,85.333c1.875,3.729,5.635,5.896,9.552,5.896c1.604,0,3.229-0.354,4.76-1.125
		C404.708,294.896,406.844,288.5,404.208,283.229z"/>
</g>
<g>
	<path style="opacity:0.1;fill:#010101;enable-background:new    ;" d="M488.083,223.089c-0.78-5.516-1.572-11.027-2.73-16.411
		c-0.638-2.966-1.51-5.841-2.259-8.764c-1.275-4.965-2.56-9.926-4.146-14.758c-0.934-2.848-2.047-5.611-3.085-8.41
		c-1.78-4.789-3.608-9.555-5.688-14.19c-1.158-2.587-2.44-5.104-3.688-7.642c-2.332-4.729-4.754-9.401-7.389-13.944
		c-1.288-2.225-2.643-4.402-4.001-6.581c-2.945-4.716-6.029-9.339-9.293-13.823c-1.327-1.827-2.68-3.633-4.057-5.421
		c-3.615-4.68-7.401-9.216-11.352-13.607c-1.281-1.428-2.555-2.863-3.871-4.259c-4.326-4.581-8.85-8.965-13.526-13.188
		c-0.6-0.542-1.19-1.095-1.796-1.632c36.076,41.262,58.13,95.092,58.13,154.207c0,33.849-7.31,65.943-20.208,95.009
		c5.326,8.052,12.613,19.936,16.785,30.611c3.874-7.764,7.326-15.771,10.354-23.98c0.079-0.217,0.159-0.434,0.238-0.651
		c2.738-7.488,5.013-15.191,6.991-23.007c0.302-1.211,0.648-2.405,0.931-3.624c1.643-6.965,2.849-14.086,3.848-21.275
		c0.241-1.775,0.608-3.51,0.809-5.298c1.001-8.685,1.586-17.497,1.586-26.452c0-8.46-0.5-16.801-1.376-25.025
		C489.005,228.309,488.456,225.728,488.083,223.089z"/>
	<path style="opacity:0.1;fill:#010101;enable-background:new    ;" d="M288.993,488.082c5.914-0.839,11.802-1.751,17.566-3.023
		c2.697-0.592,5.319-1.367,7.98-2.052c5.477-1.414,10.917-2.923,16.232-4.717c2.52-0.848,4.988-1.802,7.469-2.733
		c5.391-2.027,10.707-4.201,15.901-6.605c2.174-1.004,4.324-2.046,6.461-3.113c5.453-2.732,10.783-5.665,15.984-8.798
		c1.702-1.023,3.417-2.026,5.09-3.091c5.676-3.618,11.172-7.488,16.504-11.566c1.057-0.807,2.151-1.564,3.193-2.388
		c12.934-10.243,24.807-21.775,35.332-34.473c-11.316-0.146-21.164-6.225-26.742-15.221
		c-42.986,48.38-105.488,79.034-175.297,79.034c-59.115,0-112.945-22.055-154.207-58.13c0.536,0.605,1.09,1.195,1.632,1.796
		c4.223,4.676,8.607,9.201,13.188,13.526c1.396,1.316,2.831,2.59,4.259,3.871c4.391,3.951,8.927,7.737,13.607,11.352
		c1.788,1.378,3.594,2.73,5.421,4.057c4.484,3.264,9.107,6.348,13.823,9.293c2.178,1.358,4.355,2.714,6.581,4.001
		c4.543,2.635,9.215,5.057,13.944,7.389c2.538,1.247,5.055,2.53,7.642,3.688c4.635,2.079,9.401,3.908,14.19,5.688
		c2.799,1.038,5.563,2.151,8.41,3.085c4.832,1.586,9.793,2.871,14.758,4.146c2.923,0.749,5.798,1.621,8.764,2.259
		c5.384,1.159,10.896,1.951,16.411,2.73c2.639,0.372,5.22,0.922,7.887,1.207c8.224,0.876,16.565,1.376,25.025,1.376
		c8.656,0,17.186-0.539,25.602-1.457C284.099,488.939,286.52,488.431,288.993,488.082z"/>
</g>
<linearGradient id="SVGID_1_" gradientUnits="userSpaceOnUse" x1="-45.5785" y1="639.5551" x2="-23.8277" y2="629.4137" gradientTransform="matrix(21.3333 0 0 -21.3333 996.3334 13791.667)">
	<stop  offset="0" style="stop-color:#FFFFFF;stop-opacity:0.2"/>
	<stop  offset="1" style="stop-color:#FFFFFF;stop-opacity:0"/>
</linearGradient>
<path style="fill:url(#SVGID_1_);" d="M256,0C114.844,0,0,114.833,0,256s114.844,256,256,256s256-114.833,256-256S397.156,0,256,0z"
	/>
<g>
</g>
<g>
</g>
<g>
</g>
<g>
</g>
<g>
</g>
<g>
</g>
<g>
</g>
<g>
</g>
<g>
</g>
<g>
</g>
<g>
</g>
<g>
</g>
<g>
</g>
<g>
</g>
<g>
</g>
</svg>
