<?xml version="1.0" encoding="iso-8859-1"?>
<!-- Generator: Adobe Illustrator 19.0.0, SVG Export Plug-In . SVG Version: 6.00 Build 0)  -->
<svg version="1.1" id="Capa_1" xmlns="http://www.w3.org/2000/svg" xmlns:xlink="http://www.w3.org/1999/xlink" x="0px" y="0px"
	 viewBox="0 0 512 512" style="enable-background:new 0 0 512 512;" xml:space="preserve">
<path style="fill:#303C42;" d="M256,0C114.844,0,0,114.844,0,256s114.844,256,256,256s256-114.844,256-256S397.156,0,256,0z"/>
<path style="fill:#FED600;" d="M256,490.667C126.604,490.667,21.333,385.396,21.333,256S126.604,21.333,256,21.333
	S490.667,126.604,490.667,256S385.396,490.667,256,490.667z"/>
<path style="opacity:0.1;fill:#010101;enable-background:new    ;" d="M410.682,79.984c36.384,41.35,58.651,95.405,58.651,154.682
	c0,129.396-105.271,234.667-234.667,234.667c-59.277,0-113.332-22.267-154.682-58.651c43.038,48.911,105.897,79.984,176.016,79.984
	c129.396,0,234.667-105.271,234.667-234.667C490.667,185.882,459.594,123.022,410.682,79.984z"/>
<g>
	<path style="fill:#303C42;" d="M341.333,224c12.365,0,21.333-13.458,21.333-32s-8.969-32-21.333-32S320,173.458,320,192
		S328.969,224,341.333,224z"/>
	<path style="fill:#303C42;" d="M170.667,224C183.031,224,192,210.542,192,192s-8.969-32-21.333-32s-21.333,13.458-21.333,32
		S158.302,224,170.667,224z"/>
	<path style="fill:#303C42;" d="M256,277.333c-71.771,0-128,37.479-128,85.333S184.229,448,256,448s128-37.479,128-85.333
		S327.771,277.333,256,277.333z"/>
</g>
<path style="fill:#E53A35;" d="M197.542,415.794c9.099-7.203,17.395-10.461,26.458-10.461c9.104,0,18.531,5.031,26.646,9.74
	c3.313,1.938,7.396,1.938,10.708,0c8.115-4.708,17.542-9.74,26.646-9.74c9.27,0,17.655,3.345,26.553,10.43
	c-16.94,6.84-37.112,10.904-58.553,10.904C234.596,426.667,214.462,422.613,197.542,415.794z"/>
<path style="fill:#B72025;" d="M334.678,405.025C323.68,394.592,308.758,384,288,384c-12.042,0-22.688,4.552-32,9.604
	c-9.313-5.052-19.958-9.604-32-9.604c-20.292,0-35.171,10.333-46.629,21.06c-17.158-11.405-28.038-26.241-28.038-42.393
	c0-34.688,48.844-64,106.667-64s106.667,29.313,106.667,64C362.667,378.803,351.805,393.625,334.678,405.025z"/>
<path style="opacity:0.1;fill:#010101;enable-background:new    ;" d="M165.333,378.667c0-34.688,48.844-64,106.667-64
	c33.19,0,63.064,9.835,82.798,24.624C338.85,315.784,300.13,298.667,256,298.667c-57.823,0-106.667,29.313-106.667,64
	c0,14.577,9.165,27.939,23.505,38.818C168.038,394.374,165.333,386.685,165.333,378.667z"/>
<linearGradient id="SVGID_1_" gradientUnits="userSpaceOnUse" x1="-45.5784" y1="639.555" x2="-23.8278" y2="629.4138" gradientTransform="matrix(21.3333 0 0 -21.3333 996.3334 13791.667)">
	<stop  offset="0" style="stop-color:#FFFFFF;stop-opacity:0.2"/>
	<stop  offset="1" style="stop-color:#FFFFFF;stop-opacity:0"/>
</linearGradient>
<path style="fill:url(#SVGID_1_);" d="M256,0C114.844,0,0,114.844,0,256s114.844,256,256,256s256-114.844,256-256S397.156,0,256,0z"
	/>
<g>
</g>
<g>
</g>
<g>
</g>
<g>
</g>
<g>
</g>
<g>
</g>
<g>
</g>
<g>
</g>
<g>
</g>
<g>
</g>
<g>
</g>
<g>
</g>
<g>
</g>
<g>
</g>
<g>
</g>
</svg>
